<?xml version="1.0" standalone="no"?>
<!DOCTYPE svg PUBLIC "-//W3C//DTD SVG 20010904//EN"
 "http://www.w3.org/TR/2001/REC-SVG-20010904/DTD/svg10.dtd">
<svg version="1.0" xmlns="http://www.w3.org/2000/svg"
 width="860.000000pt" height="739.000000pt" viewBox="0 0 860.000000 739.000000"
 preserveAspectRatio="xMidYMid meet">

<g transform="translate(0.000000,739.000000) scale(0.100000,-0.100000)"
fill="#000000" stroke="none">
<path d="M4743 6975 c-17 -7 -40 -26 -50 -41 -17 -26 -18 -64 -18 -624 0 -575
1 -596 20 -635 18 -35 26 -41 67 -49 38 -7 53 -6 85 11 70 36 67 11 71 676 l4
598 -23 26 c-49 52 -97 64 -156 38z"/>
<path d="M3625 6231 c-30 -13 -72 -59 -79 -87 -8 -32 46 -162 161 -384 101
-197 130 -241 166 -258 40 -19 96 -5 136 35 30 30 33 38 29 76 -9 77 -264 579
-311 612 -23 16 -70 19 -102 6z"/>
<path d="M5857 6220 c-30 -24 -70 -94 -184 -322 -116 -233 -135 -285 -118
-324 26 -63 106 -99 161 -72 36 16 82 92 195 318 153 305 160 344 69 399 -44
26 -90 27 -123 1z"/>
<path d="M2355 5970 c-33 -22 -65 -73 -65 -106 0 -40 62 -109 404 -450 395
-394 429 -424 491 -424 80 0 133 77 102 150 -27 65 -692 744 -803 821 -50 34
-87 37 -129 9z"/>
<path d="M7088 5949 c-65 -51 -673 -660 -746 -747 -39 -47 -52 -71 -52 -95 0
-76 78 -139 145 -117 42 14 254 210 551 511 325 330 335 344 294 417 -46 83
-111 93 -192 31z"/>
<path d="M1505 5234 c-106 -14 -182 -31 -270 -61 -359 -124 -634 -375 -810
-738 -99 -205 -125 -325 -125 -583 0 -187 10 -253 56 -391 121 -364 379 -656
731 -827 50 -24 152 -64 225 -89 l133 -45 271 0 c149 0 581 -3 960 -7 l689 -6
55 -69 c64 -81 245 -257 331 -324 122 -94 316 -197 477 -254 65 -23 91 -37 88
-46 -3 -8 -8 -71 -12 -141 -17 -333 79 -594 300 -816 140 -141 317 -245 511
-302 123 -36 323 -44 1035 -44 568 -1 912 9 1023 29 160 30 383 127 534 233
117 82 263 230 341 345 120 175 206 388 231 566 15 108 14 303 -3 416 -51 333
-271 690 -554 899 -156 114 -297 180 -490 229 -95 23 -126 26 -277 26 -159 0
-179 -2 -299 -32 -71 -18 -131 -30 -134 -28 -2 3 1 48 7 100 39 335 -26 691
-185 1011 -256 517 -754 865 -1337 936 -143 17 -434 6 -562 -21 -225 -48 -488
-161 -660 -282 -49 -35 -146 -118 -216 -185 l-126 -123 -119 0 c-193 0 -354
-17 -456 -46 -12 -3 -43 27 -108 105 -107 128 -205 216 -349 312 -186 125
-378 205 -564 233 -97 15 -291 27 -342 20z m278 -255 c342 -51 633 -242 847
-554 75 -110 101 -130 163 -129 29 1 102 13 162 28 117 30 300 55 311 43 4 -4
-18 -60 -49 -126 -69 -143 -98 -227 -131 -374 -72 -322 -53 -630 60 -958 24
-71 44 -135 44 -143 0 -10 -27 -15 -107 -21 -138 -9 -1458 3 -1583 15 -229 22
-515 172 -667 348 -111 130 -213 317 -255 468 -19 70 -22 104 -22 309 l-1 230
33 94 c82 235 217 422 407 563 228 171 520 248 788 207z m3294 -14 c171 -26
357 -103 538 -222 322 -213 557 -544 647 -911 19 -76 21 -116 21 -312 0 -244
-17 -389 -54 -465 -14 -27 -49 -62 -111 -110 -128 -98 -227 -193 -310 -296
-39 -49 -74 -89 -78 -89 -5 0 -48 10 -97 22 -117 30 -395 33 -515 6 -277 -62
-499 -214 -651 -445 l-68 -102 -96 35 c-333 120 -587 316 -751 579 -120 194
-199 394 -233 597 -29 168 -23 411 14 568 89 375 287 669 601 894 190 136 443
240 647 266 100 12 363 4 496 -15z m2040 -1990 c357 -58 700 -326 840 -657 69
-164 78 -212 78 -423 0 -115 -5 -218 -13 -261 -17 -91 -84 -257 -148 -363 -57
-97 -177 -229 -272 -300 -82 -62 -286 -166 -365 -186 -105 -26 -291 -34 -947
-40 -692 -7 -1020 2 -1125 31 -474 128 -736 638 -565 1097 70 187 256 368 461
447 148 57 352 58 574 4 139 -34 194 -36 232 -8 15 11 57 63 93 115 79 114
249 287 347 352 258 171 534 237 810 192z"/>
<path d="M4140 4351 c-50 -16 -89 -42 -140 -91 -103 -101 -107 -201 -8 -248
61 -29 92 -20 156 46 71 75 97 75 161 2 42 -48 51 -53 97 -57 46 -5 54 -2 87
27 23 20 39 44 43 66 22 117 -137 255 -301 261 -38 1 -81 -1 -95 -6z"/>
<path d="M5268 4347 c-90 -34 -185 -113 -208 -173 -16 -42 -12 -99 10 -126 11
-14 38 -33 60 -42 39 -15 44 -15 85 3 26 12 53 34 67 55 24 38 67 59 96 49 9
-4 40 -31 67 -60 48 -50 54 -53 99 -53 41 0 53 5 81 33 65 65 56 137 -26 219
-89 89 -233 131 -331 95z"/>
<path d="M4255 3356 c-48 -21 -85 -71 -85 -116 0 -80 108 -249 225 -350 84
-73 234 -133 362 -145 182 -18 430 102 557 269 47 61 106 181 106 214 0 66
-63 132 -127 132 -61 0 -79 -17 -139 -131 -58 -111 -94 -153 -162 -188 -95
-49 -284 -54 -377 -10 -79 37 -156 121 -189 205 -28 75 -53 106 -99 123 -35
13 -35 13 -72 -3z"/>
<path d="M7335 4706 c-108 -44 -374 -179 -450 -227 -34 -21 -67 -50 -75 -63
-27 -52 10 -141 70 -166 28 -11 39 -10 103 15 148 58 506 246 541 284 39 43
14 146 -44 176 -40 21 -54 19 -145 -19z"/>
<path d="M7030 3731 c-56 -8 -66 -15 -86 -53 -20 -39 -14 -110 13 -147 18 -23
30 -27 99 -34 43 -5 324 -6 623 -3 l544 4 30 30 c53 54 45 160 -16 194 -17 10
-153 13 -592 14 -313 1 -590 -1 -615 -5z"/>
</g>
</svg>
